<?xml version="1.0" encoding="UTF-8"?>
<!DOCTYPE score-partwise PUBLIC "-//Recordare//DTD MusicXML 4.0 Partwise//EN" "http://www.musicxml.org/dtds/partwise.dtd">
<score-partwise version="4.0">
  <part-list>
    <score-part id="P1">
      <part-name>Melody</part-name>
      <score-instrument id="P1-I1">
        <instrument-name>Guitar</instrument-name>
      </score-instrument>
      <midi-instrument id="P1-I1">
        <midi-channel>1</midi-channel>
        <midi-program>26</midi-program>
      </midi-instrument>
    </score-part>
  </part-list>
  <part id="P1">
    <measure number="1">
      <attributes>
        <divisions>4</divisions>
        <key>
          <fifths>-4</fifths>
          <mode>minor</mode>
        </key>
        <time>
          <beats>4</beats>
          <beat-type>4</beat-type>
        </time>
        <clef>
          <sign>G</sign>
          <line>2</line>
          <clef-octave-change>-1</clef-octave-change>
        </clef>
        <staff-details>
          <staff-lines>6</staff-lines>
          <staff-tuning line="1">
            <tuning-step>E</tuning-step>
            <tuning-octave>2</tuning-octave>
          </staff-tuning>
          <staff-tuning line="2">
            <tuning-step>A</tuning-step>
            <tuning-octave>2</tuning-octave>
          </staff-tuning>
          <staff-tuning line="3">
            <tuning-step>D</tuning-step>
            <tuning-octave>3</tuning-octave>
          </staff-tuning>
          <staff-tuning line="4">
            <tuning-step>G</tuning-step>
            <tuning-octave>3</tuning-octave>
          </staff-tuning>
          <staff-tuning line="5">
            <tuning-step>B</tuning-step>
            <tuning-octave>3</tuning-octave>
          </staff-tuning>
          <staff-tuning line="6">
            <tuning-step>E</tuning-step>
            <tuning-octave>4</tuning-octave>
          </staff-tuning>
        </staff-details>
      </attributes>
      <direction placement="above">
        <direction-type>
          <metronome>
            <beat-unit>quarter</beat-unit>
            <per-minute>120</per-minute>
          </metronome>
        </direction-type>
      </direction>
      <note>
        <pitch>
          <step>A</step>
          <octave>2</octave>
        </pitch>
        <duration>12</duration>
        <tie type="start"/>
        <voice>1</voice>
        <type>half</type>
        <dot/>
        <notations>
          <tied type="start"/>
          <technical>
            <string>5</string>
            <fret>0</fret>
          </technical>
        </notations>
      </note>
      <note>
        <chord/>
        <pitch>
          <step>E</step>
          <octave>3</octave>
        </pitch>
        <duration>12</duration>
        <tie type="start"/>
        <voice>1</voice>
        <type>half</type>
        <dot/>
        <notations>
          <tied type="start"/>
          <technical>
            <string>4</string>
            <fret>2</fret>
          </technical>
        </notations>
      </note>
      <note>
        <chord/>
        <pitch>
          <step>A</step>
          <octave>3</octave>
        </pitch>
        <duration>12</duration>
        <tie type="start"/>
        <voice>1</voice>
        <type>half</type>
        <dot/>
        <notations>
          <tied type="start"/>
          <technical>
            <string>3</string>
            <fret>2</fret>
          </technical>
        </notations>
      </note>
      <note>
        <chord/>
        <pitch>
          <step>C</step>
          <octave>4</octave>
        </pitch>
        <duration>12</duration>
        <tie type="start"/>
        <voice>1</voice>
        <type>half</type>
        <dot/>
        <notations>
          <tied type="start"/>
          <technical>
            <string>2</string>
            <fret>1</fret>
          </technical>
        </notations>
      </note>
      <note>
        <pitch>
          <step>A</step>
          <octave>2</octave>
        </pitch>
        <duration>2</duration>
        <tie type="stop"/>
        <voice>1</voice>
        <type>eighth</type>
        <notations>
          <tied type="stop"/>
          <technical>
            <string>5</string>
            <fret>0</fret>
          </technical>
        </notations>
      </note>
      <note>
        <chord/>
        <pitch>
          <step>E</step>
          <octave>3</octave>
        </pitch>
        <duration>2</duration>
        <tie type="stop"/>
        <voice>1</voice>
        <type>eighth</type>
        <notations>
          <tied type="stop"/>
          <technical>
            <string>4</string>
            <fret>2</fret>
          </technical>
        </notations>
      </note>
      <note>
        <chord/>
        <pitch>
          <step>A</step>
          <octave>3</octave>
        </pitch>
        <duration>2</duration>
        <tie type="stop"/>
        <voice>1</voice>
        <type>eighth</type>
        <notations>
          <tied type="stop"/>
          <technical>
            <string>3</string>
            <fret>2</fret>
          </technical>
        </notations>
      </note>
      <note>
        <chord/>
        <pitch>
          <step>C</step>
          <octave>4</octave>
        </pitch>
        <duration>2</duration>
        <tie type="stop"/>
        <voice>1</voice>
        <type>eighth</type>
        <notations>
          <tied type="stop"/>
          <technical>
            <string>2</string>
            <fret>1</fret>
          </technical>
        </notations>
      </note>
      <note>
        <pitch>
          <step>A</step>
          <octave>2</octave>
        </pitch>
        <duration>2</duration>
        <tie type="start"/>
        <voice>1</voice>
        <type>eighth</type>
        <notations>
          <tied type="start"/>
          <technical>
            <string>5</string>
            <fret>0</fret>
          </technical>
        </notations>
      </note>
    </measure>
    <measure number="2">
      <note>
        <pitch>
          <step>A</step>
          <octave>2</octave>
        </pitch>
        <duration>16</duration>
        <tie type="start"/>
        <tie type="stop"/>
        <voice>1</voice>
        <type>whole</type>
        <notations>
          <tied type="start"/>
          <tied type="stop"/>
          <technical>
            <string>5</string>
            <fret>0</fret>
          </technical>
        </notations>
      </note>
    </measure>
    <measure number="3">
      <note>
        <pitch>
          <step>A</step>
          <octave>2</octave>
        </pitch>
        <duration>16</duration>
        <tie type="start"/>
        <tie type="stop"/>
        <voice>1</voice>
        <type>whole</type>
        <notations>
          <tied type="start"/>
          <tied type="stop"/>
          <technical>
            <string>5</string>
            <fret>0</fret>
          </technical>
        </notations>
      </note>
    </measure>
    <measure number="4">
      <note>
        <pitch>
          <step>A</step>
          <octave>2</octave>
        </pitch>
        <duration>12</duration>
        <tie type="start"/>
        <tie type="stop"/>
        <voice>1</voice>
        <type>half</type>
        <dot/>
        <notations>
          <tied type="start"/>
          <tied type="stop"/>
          <technical>
            <string>5</string>
            <fret>0</fret>
          </technical>
        </notations>
      </note>
      <note>
        <pitch>
          <step>A</step>
          <octave>2</octave>
        </pitch>
        <duration>1</duration>
        <tie type="stop"/>
        <voice>1</voice>
        <type>16th</type>
        <notations>
          <tied type="stop"/>
          <technical>
            <string>5</string>
            <fret>0</fret>
          </technical>
        </notations>
      </note>
      <note>
        <pitch>
          <step>E</step>
          <octave>3</octave>
        </pitch>
        <duration>3</duration>
        <tie type="start"/>
        <voice>1</voice>
        <type>eighth</type>
        <dot/>
        <notations>
          <tied type="start"/>
          <technical>
            <string>4</string>
            <fret>2</fret>
          </technical>
        </notations>
      </note>
      <note>
        <chord/>
        <pitch>
          <step>B</step>
          <octave>3</octave>
        </pitch>
        <duration>3</duration>
        <tie type="start"/>
        <voice>1</voice>
        <type>eighth</type>
        <dot/>
        <notations>
          <tied type="start"/>
          <technical>
            <string>3</string>
            <fret>4</fret>
          </technical>
        </notations>
      </note>
      <note>
        <chord/>
        <pitch>
          <step>E</step>
          <octave>4</octave>
        </pitch>
        <duration>3</duration>
        <tie type="start"/>
        <voice>1</voice>
        <type>eighth</type>
        <dot/>
        <notations>
          <tied type="start"/>
          <technical>
            <string>2</string>
            <fret>5</fret>
          </technical>
        </notations>
      </note>
      <note>
        <chord/>
        <pitch>
          <step>G</step>
          <octave>4</octave>
        </pitch>
        <duration>3</duration>
        <tie type="start"/>
        <voice>1</voice>
        <type>eighth</type>
        <dot/>
        <notations>
          <tied type="start"/>
          <technical>
            <string>1</string>
            <fret>3</fret>
          </technical>
        </notations>
      </note>
    </measure>
    <measure number="5">
      <note>
        <pitch>
          <step>E</step>
          <octave>3</octave>
        </pitch>
        <duration>16</duration>
        <tie type="start"/>
        <tie type="stop"/>
        <voice>1</voice>
        <type>whole</type>
        <notations>
          <tied type="start"/>
          <tied type="stop"/>
          <technical>
            <string>4</string>
            <fret>2</fret>
          </technical>
        </notations>
      </note>
      <note>
        <chord/>
        <pitch>
          <step>B</step>
          <octave>3</octave>
        </pitch>
        <duration>16</duration>
        <tie type="start"/>
        <tie type="stop"/>
        <voice>1</voice>
        <type>whole</type>
        <notations>
          <tied type="start"/>
          <tied type="stop"/>
          <technical>
            <string>3</string>
            <fret>4</fret>
          </technical>
        </notations>
      </note>
      <note>
        <chord/>
        <pitch>
          <step>E</step>
          <octave>4</octave>
        </pitch>
        <duration>16</duration>
        <tie type="start"/>
        <tie type="stop"/>
        <voice>1</voice>
        <type>whole</type>
        <notations>
          <tied type="start"/>
          <tied type="stop"/>
          <technical>
            <string>2</string>
            <fret>5</fret>
          </technical>
        </notations>
      </note>
      <note>
        <chord/>
        <pitch>
          <step>G</step>
          <octave>4</octave>
        </pitch>
        <duration>16</duration>
        <tie type="start"/>
        <tie type="stop"/>
        <voice>1</voice>
        <type>whole</type>
        <notations>
          <tied type="start"/>
          <tied type="stop"/>
          <technical>
            <string>1</string>
            <fret>3</fret>
          </technical>
        </notations>
      </note>
    </measure>
    <measure number="6">
      <note>
        <pitch>
          <step>E</step>
          <octave>3</octave>
        </pitch>
        <duration>8</duration>
        <tie type="start"/>
        <tie type="stop"/>
        <voice>1</voice>
        <type>half</type>
        <notations>
          <tied type="start"/>
          <tied type="stop"/>
          <technical>
            <string>4</string>
            <fret>2</fret>
          </technical>
        </notations>
      </note>
      <note>
        <chord/>
        <pitch>
          <step>B</step>
          <octave>3</octave>
        </pitch>
        <duration>8</duration>
        <tie type="start"/>
        <tie type="stop"/>
        <voice>1</voice>
        <type>half</type>
        <notations>
          <tied type="start"/>
          <tied type="stop"/>
          <technical>
            <string>3</string>
            <fret>4</fret>
          </technical>
        </notations>
      </note>
      <note>
        <chord/>
        <pitch>
          <step>E</step>
          <octave>4</octave>
        </pitch>
        <duration>8</duration>
        <tie type="start"/>
        <tie type="stop"/>
        <voice>1</voice>
        <type>half</type>
        <notations>
          <tied type="start"/>
          <tied type="stop"/>
          <technical>
            <string>2</string>
            <fret>5</fret>
          </technical>
        </notations>
      </note>
      <note>
        <chord/>
        <pitch>
          <step>G</step>
          <octave>4</octave>
        </pitch>
        <duration>8</duration>
        <tie type="start"/>
        <tie type="stop"/>
        <voice>1</voice>
        <type>half</type>
        <notations>
          <tied type="start"/>
          <tied type="stop"/>
          <technical>
            <string>1</string>
            <fret>3</fret>
          </technical>
        </notations>
      </note>
      <note>
        <pitch>
          <step>E</step>
          <octave>3</octave>
        </pitch>
        <duration>1</duration>
        <tie type="stop"/>
        <voice>1</voice>
        <type>16th</type>
        <notations>
          <tied type="stop"/>
          <technical>
            <string>4</string>
            <fret>2</fret>
          </technical>
        </notations>
      </note>
      <note>
        <chord/>
        <pitch>
          <step>B</step>
          <octave>3</octave>
        </pitch>
        <duration>1</duration>
        <tie type="stop"/>
        <voice>1</voice>
        <type>16th</type>
        <notations>
          <tied type="stop"/>
          <technical>
            <string>3</string>
            <fret>4</fret>
          </technical>
        </notations>
      </note>
      <note>
        <chord/>
        <pitch>
          <step>E</step>
          <octave>4</octave>
        </pitch>
        <duration>1</duration>
        <tie type="stop"/>
        <voice>1</voice>
        <type>16th</type>
        <notations>
          <tied type="stop"/>
          <technical>
            <string>2</string>
            <fret>5</fret>
          </technical>
        </notations>
      </note>
      <note>
        <chord/>
        <pitch>
          <step>G</step>
          <octave>4</octave>
        </pitch>
        <duration>1</duration>
        <tie type="stop"/>
        <voice>1</voice>
        <type>16th</type>
        <notations>
          <tied type="stop"/>
          <technical>
            <string>1</string>
            <fret>3</fret>
          </technical>
        </notations>
      </note>
      <note>
        <pitch>
          <step>E</step>
          <octave>4</octave>
        </pitch>
        <duration>6</duration>
        <tie type="start"/>
        <voice>1</voice>
        <type>quarter</type>
        <dot/>
        <notations>
          <tied type="start"/>
          <technical>
            <string>1</string>
            <fret>0</fret>
          </technical>
        </notations>
      </note>
      <note>
        <pitch>
          <step>E</step>
          <octave>4</octave>
        </pitch>
        <duration>1</duration>
        <tie type="start"/>
        <tie type="stop"/>
        <voice>1</voice>
        <type>16th</type>
        <notations>
          <tied type="start"/>
          <tied type="stop"/>
          <technical>
            <string>1</string>
            <fret>0</fret>
          </technical>
        </notations>
      </note>
    </measure>
    <measure number="7">
      <note>
        <pitch>
          <step>E</step>
          <octave>4</octave>
        </pitch>
        <duration>16</duration>
        <tie type="start"/>
        <tie type="stop"/>
        <voice>1</voice>
        <type>whole</type>
        <notations>
          <tied type="start"/>
          <tied type="stop"/>
          <technical>
            <string>1</string>
            <fret>0</fret>
          </technical>
        </notations>
      </note>
    </measure>
    <measure number="8">
      <note>
        <pitch>
          <step>E</step>
          <octave>4</octave>
        </pitch>
        <duration>8</duration>
        <tie type="start"/>
        <tie type="stop"/>
        <voice>1</voice>
        <type>half</type>
        <notations>
          <tied type="start"/>
          <tied type="stop"/>
          <technical>
            <string>1</string>
            <fret>0</fret>
          </technical>
        </notations>
      </note>
      <note>
        <pitch>
          <step>E</step>
          <octave>4</octave>
        </pitch>
        <duration>1</duration>
        <tie type="stop"/>
        <voice>1</voice>
        <type>16th</type>
        <notations>
          <tied type="stop"/>
          <technical>
            <string>1</string>
            <fret>0</fret>
          </technical>
        </notations>
      </note>
      <note>
        <pitch>
          <step>A</step>
          <octave>2</octave>
        </pitch>
        <duration>6</duration>
        <tie type="start"/>
        <voice>1</voice>
        <type>quarter</type>
        <dot/>
        <notations>
          <tied type="start"/>
          <technical>
            <string>5</string>
            <fret>0</fret>
          </technical>
        </notations>
      </note>
      <note>
        <chord/>
        <pitch>
          <step>E</step>
          <octave>3</octave>
        </pitch>
        <duration>6</duration>
        <tie type="start"/>
        <voice>1</voice>
        <type>quarter</type>
        <dot/>
        <notations>
          <tied type="start"/>
          <technical>
            <string>4</string>
            <fret>2</fret>
          </technical>
        </notations>
      </note>
      <note>
        <chord/>
        <pitch>
          <step>A</step>
          <octave>3</octave>
        </pitch>
        <duration>6</duration>
        <tie type="start"/>
        <voice>1</voice>
        <type>quarter</type>
        <dot/>
        <notations>
          <tied type="start"/>
          <technical>
            <string>3</string>
            <fret>2</fret>
          </technical>
        </notations>
      </note>
      <note>
        <chord/>
        <pitch>
          <step>C</step>
          <octave>4</octave>
        </pitch>
        <duration>6</duration>
        <tie type="start"/>
        <voice>1</voice>
        <type>quarter</type>
        <dot/>
        <notations>
          <tied type="start"/>
          <technical>
            <string>2</string>
            <fret>1</fret>
          </technical>
        </notations>
      </note>
      <note>
        <pitch>
          <step>A</step>
          <octave>2</octave>
        </pitch>
        <duration>1</duration>
        <tie type="start"/>
        <tie type="stop"/>
        <voice>1</voice>
        <type>16th</type>
        <notations>
          <tied type="start"/>
          <tied type="stop"/>
          <technical>
            <string>5</string>
            <fret>0</fret>
          </technical>
        </notations>
      </note>
      <note>
        <chord/>
        <pitch>
          <step>E</step>
          <octave>3</octave>
        </pitch>
        <duration>1</duration>
        <tie type="start"/>
        <tie type="stop"/>
        <voice>1</voice>
        <type>16th</type>
        <notations>
          <tied type="start"/>
          <tied type="stop"/>
          <technical>
            <string>4</string>
            <fret>2</fret>
          </technical>
        </notations>
      </note>
      <note>
        <chord/>
        <pitch>
          <step>A</step>
          <octave>3</octave>
        </pitch>
        <duration>1</duration>
        <tie type="start"/>
        <tie type="stop"/>
        <voice>1</voice>
        <type>16th</type>
        <notations>
          <tied type="start"/>
          <tied type="stop"/>
          <technical>
            <string>3</string>
            <fret>2</fret>
          </technical>
        </notations>
      </note>
      <note>
        <chord/>
        <pitch>
          <step>C</step>
          <octave>4</octave>
        </pitch>
        <duration>1</duration>
        <tie type="start"/>
        <tie type="stop"/>
        <voice>1</voice>
        <type>16th</type>
        <notations>
          <tied type="start"/>
          <tied type="stop"/>
          <technical>
            <string>2</string>
            <fret>1</fret>
          </technical>
        </notations>
      </note>
    </measure>
    <measure number="9">
      <note>
        <pitch>
          <step>A</step>
          <octave>2</octave>
        </pitch>
        <duration>16</duration>
        <tie type="start"/>
        <tie type="stop"/>
        <voice>1</voice>
        <type>whole</type>
        <notations>
          <tied type="start"/>
          <tied type="stop"/>
          <technical>
            <string>5</string>
            <fret>0</fret>
          </technical>
        </notations>
      </note>
      <note>
        <chord/>
        <pitch>
          <step>E</step>
          <octave>3</octave>
        </pitch>
        <duration>16</duration>
        <tie type="start"/>
        <tie type="stop"/>
        <voice>1</voice>
        <type>whole</type>
        <notations>
          <tied type="start"/>
          <tied type="stop"/>
          <technical>
            <string>4</string>
            <fret>2</fret>
          </technical>
        </notations>
      </note>
      <note>
        <chord/>
        <pitch>
          <step>A</step>
          <octave>3</octave>
        </pitch>
        <duration>16</duration>
        <tie type="start"/>
        <tie type="stop"/>
        <voice>1</voice>
        <type>whole</type>
        <notations>
          <tied type="start"/>
          <tied type="stop"/>
          <technical>
            <string>3</string>
            <fret>2</fret>
          </technical>
        </notations>
      </note>
      <note>
        <chord/>
        <pitch>
          <step>C</step>
          <octave>4</octave>
        </pitch>
        <duration>16</duration>
        <tie type="start"/>
        <tie type="stop"/>
        <voice>1</voice>
        <type>whole</type>
        <notations>
          <tied type="start"/>
          <tied type="stop"/>
          <technical>
            <string>2</string>
            <fret>1</fret>
          </technical>
        </notations>
      </note>
    </measure>
    <measure number="10">
      <note>
        <pitch>
          <step>A</step>
          <octave>2</octave>
        </pitch>
        <duration>16</duration>
        <tie type="start"/>
        <tie type="stop"/>
        <voice>1</voice>
        <type>whole</type>
        <notations>
          <tied type="start"/>
          <tied type="stop"/>
          <technical>
            <string>5</string>
            <fret>0</fret>
          </technical>
        </notations>
      </note>
      <note>
        <chord/>
        <pitch>
          <step>E</step>
          <octave>3</octave>
        </pitch>
        <duration>16</duration>
        <tie type="start"/>
        <tie type="stop"/>
        <voice>1</voice>
        <type>whole</type>
        <notations>
          <tied type="start"/>
          <tied type="stop"/>
          <technical>
            <string>4</string>
            <fret>2</fret>
          </technical>
        </notations>
      </note>
      <note>
        <chord/>
        <pitch>
          <step>A</step>
          <octave>3</octave>
        </pitch>
        <duration>16</duration>
        <tie type="start"/>
        <tie type="stop"/>
        <voice>1</voice>
        <type>whole</type>
        <notations>
          <tied type="start"/>
          <tied type="stop"/>
          <technical>
            <string>3</string>
            <fret>2</fret>
          </technical>
        </notations>
      </note>
      <note>
        <chord/>
        <pitch>
          <step>C</step>
          <octave>4</octave>
        </pitch>
        <duration>16</duration>
        <tie type="start"/>
        <tie type="stop"/>
        <voice>1</voice>
        <type>whole</type>
        <notations>
          <tied type="start"/>
          <tied type="stop"/>
          <technical>
            <string>2</string>
            <fret>1</fret>
          </technical>
        </notations>
      </note>
    </measure>
    <measure number="11">
      <note>
        <pitch>
          <step>A</step>
          <octave>2</octave>
        </pitch>
        <duration>16</duration>
        <tie type="start"/>
        <tie type="stop"/>
        <voice>1</voice>
        <type>whole</type>
        <notations>
          <tied type="start"/>
          <tied type="stop"/>
          <technical>
            <string>5</string>
            <fret>0</fret>
          </technical>
        </notations>
      </note>
      <note>
        <chord/>
        <pitch>
          <step>E</step>
          <octave>3</octave>
        </pitch>
        <duration>16</duration>
        <tie type="start"/>
        <tie type="stop"/>
        <voice>1</voice>
        <type>whole</type>
        <notations>
          <tied type="start"/>
          <tied type="stop"/>
          <technical>
            <string>4</string>
            <fret>2</fret>
          </technical>
        </notations>
      </note>
      <note>
        <chord/>
        <pitch>
          <step>A</step>
          <octave>3</octave>
        </pitch>
        <duration>16</duration>
        <tie type="start"/>
        <tie type="stop"/>
        <voice>1</voice>
        <type>whole</type>
        <notations>
          <tied type="start"/>
          <tied type="stop"/>
          <technical>
            <string>3</string>
            <fret>2</fret>
          </technical>
        </notations>
      </note>
      <note>
        <chord/>
        <pitch>
          <step>C</step>
          <octave>4</octave>
        </pitch>
        <duration>16</duration>
        <tie type="start"/>
        <tie type="stop"/>
        <voice>1</voice>
        <type>whole</type>
        <notations>
          <tied type="start"/>
          <tied type="stop"/>
          <technical>
            <string>2</string>
            <fret>1</fret>
          </technical>
        </notations>
      </note>
    </measure>
    <measure number="12">
      <note>
        <pitch>
          <step>A</step>
          <octave>2</octave>
        </pitch>
        <duration>16</duration>
        <tie type="start"/>
        <tie type="stop"/>
        <voice>1</voice>
        <type>whole</type>
        <notations>
          <tied type="start"/>
          <tied type="stop"/>
          <technical>
            <string>5</string>
            <fret>0</fret>
          </technical>
        </notations>
      </note>
      <note>
        <chord/>
        <pitch>
          <step>E</step>
          <octave>3</octave>
        </pitch>
        <duration>16</duration>
        <tie type="start"/>
        <tie type="stop"/>
        <voice>1</voice>
        <type>whole</type>
        <notations>
          <tied type="start"/>
          <tied type="stop"/>
          <technical>
            <string>4</string>
            <fret>2</fret>
          </technical>
        </notations>
      </note>
      <note>
        <chord/>
        <pitch>
          <step>A</step>
          <octave>3</octave>
        </pitch>
        <duration>16</duration>
        <tie type="start"/>
        <tie type="stop"/>
        <voice>1</voice>
        <type>whole</type>
        <notations>
          <tied type="start"/>
          <tied type="stop"/>
          <technical>
            <string>3</string>
            <fret>2</fret>
          </technical>
        </notations>
      </note>
      <note>
        <chord/>
        <pitch>
          <step>C</step>
          <octave>4</octave>
        </pitch>
        <duration>16</duration>
        <tie type="start"/>
        <tie type="stop"/>
        <voice>1</voice>
        <type>whole</type>
        <notations>
          <tied type="start"/>
          <tied type="stop"/>
          <technical>
            <string>2</string>
            <fret>1</fret>
          </technical>
        </notations>
      </note>
    </measure>
    <measure number="13">
      <note>
        <pitch>
          <step>A</step>
          <octave>2</octave>
        </pitch>
        <duration>3</duration>
        <tie type="stop"/>
        <voice>1</voice>
        <type>eighth</type>
        <dot/>
        <notations>
          <tied type="stop"/>
          <technical>
            <string>5</string>
            <fret>0</fret>
          </technical>
        </notations>
      </note>
      <note>
        <chord/>
        <pitch>
          <step>E</step>
          <octave>3</octave>
        </pitch>
        <duration>3</duration>
        <tie type="stop"/>
        <voice>1</voice>
        <type>eighth</type>
        <dot/>
        <notations>
          <tied type="stop"/>
          <technical>
            <string>4</string>
            <fret>2</fret>
          </technical>
        </notations>
      </note>
      <note>
        <chord/>
        <pitch>
          <step>A</step>
          <octave>3</octave>
        </pitch>
        <duration>3</duration>
        <tie type="stop"/>
        <voice>1</voice>
        <type>eighth</type>
        <dot/>
        <notations>
          <tied type="stop"/>
          <technical>
            <string>3</string>
            <fret>2</fret>
          </technical>
        </notations>
      </note>
      <note>
        <chord/>
        <pitch>
          <step>C</step>
          <octave>4</octave>
        </pitch>
        <duration>3</duration>
        <tie type="stop"/>
        <voice>1</voice>
        <type>eighth</type>
        <dot/>
        <notations>
          <tied type="stop"/>
          <technical>
            <string>2</string>
            <fret>1</fret>
          </technical>
        </notations>
      </note>
      <note>
        <pitch>
          <step>E</step>
          <octave>3</octave>
        </pitch>
        <duration>12</duration>
        <tie type="start"/>
        <voice>1</voice>
        <type>half</type>
        <dot/>
        <notations>
          <tied type="start"/>
          <technical>
            <string>4</string>
            <fret>2</fret>
          </technical>
        </notations>
      </note>
      <note>
        <chord/>
        <pitch>
          <step>B</step>
          <octave>3</octave>
        </pitch>
        <duration>12</duration>
        <tie type="start"/>
        <voice>1</voice>
        <type>half</type>
        <dot/>
        <notations>
          <tied type="start"/>
          <technical>
            <string>3</string>
            <fret>4</fret>
          </technical>
        </notations>
      </note>
      <note>
        <chord/>
        <pitch>
          <step>E</step>
          <octave>4</octave>
        </pitch>
        <duration>12</duration>
        <tie type="start"/>
        <voice>1</voice>
        <type>half</type>
        <dot/>
        <notations>
          <tied type="start"/>
          <technical>
            <string>2</string>
            <fret>5</fret>
          </technical>
        </notations>
      </note>
      <note>
        <chord/>
        <pitch>
          <step>G</step>
          <octave>4</octave>
        </pitch>
        <duration>12</duration>
        <tie type="start"/>
        <voice>1</voice>
        <type>half</type>
        <dot/>
        <notations>
          <tied type="start"/>
          <technical>
            <string>1</string>
            <fret>3</fret>
          </technical>
        </notations>
      </note>
      <note>
        <pitch>
          <step>E</step>
          <octave>3</octave>
        </pitch>
        <duration>1</duration>
        <tie type="start"/>
        <tie type="stop"/>
        <voice>1</voice>
        <type>16th</type>
        <notations>
          <tied type="start"/>
          <tied type="stop"/>
          <technical>
            <string>4</string>
            <fret>2</fret>
          </technical>
        </notations>
      </note>
      <note>
        <chord/>
        <pitch>
          <step>B</step>
          <octave>3</octave>
        </pitch>
        <duration>1</duration>
        <tie type="start"/>
        <tie type="stop"/>
        <voice>1</voice>
        <type>16th</type>
        <notations>
          <tied type="start"/>
          <tied type="stop"/>
          <technical>
            <string>3</string>
            <fret>4</fret>
          </technical>
        </notations>
      </note>
      <note>
        <chord/>
        <pitch>
          <step>E</step>
          <octave>4</octave>
        </pitch>
        <duration>1</duration>
        <tie type="start"/>
        <tie type="stop"/>
        <voice>1</voice>
        <type>16th</type>
        <notations>
          <tied type="start"/>
          <tied type="stop"/>
          <technical>
            <string>2</string>
            <fret>5</fret>
          </technical>
        </notations>
      </note>
      <note>
        <chord/>
        <pitch>
          <step>G</step>
          <octave>4</octave>
        </pitch>
        <duration>1</duration>
        <tie type="start"/>
        <tie type="stop"/>
        <voice>1</voice>
        <type>16th</type>
        <notations>
          <tied type="start"/>
          <tied type="stop"/>
          <technical>
            <string>1</string>
            <fret>3</fret>
          </technical>
        </notations>
      </note>
    </measure>
    <measure number="14">
      <note>
        <pitch>
          <step>E</step>
          <octave>3</octave>
        </pitch>
        <duration>12</duration>
        <tie type="stop"/>
        <voice>1</voice>
        <type>half</type>
        <dot/>
        <notations>
          <tied type="stop"/>
          <technical>
            <string>4</string>
            <fret>2</fret>
          </technical>
        </notations>
      </note>
      <note>
        <chord/>
        <pitch>
          <step>B</step>
          <octave>3</octave>
        </pitch>
        <duration>12</duration>
        <tie type="stop"/>
        <voice>1</voice>
        <type>half</type>
        <dot/>
        <notations>
          <tied type="stop"/>
          <technical>
            <string>3</string>
            <fret>4</fret>
          </technical>
        </notations>
      </note>
      <note>
        <chord/>
        <pitch>
          <step>E</step>
          <octave>4</octave>
        </pitch>
        <duration>12</duration>
        <tie type="stop"/>
        <voice>1</voice>
        <type>half</type>
        <dot/>
        <notations>
          <tied type="stop"/>
          <technical>
            <string>2</string>
            <fret>5</fret>
          </technical>
        </notations>
      </note>
      <note>
        <chord/>
        <pitch>
          <step>G</step>
          <octave>4</octave>
        </pitch>
        <duration>12</duration>
        <tie type="stop"/>
        <voice>1</voice>
        <type>half</type>
        <dot/>
        <notations>
          <tied type="stop"/>
          <technical>
            <string>1</string>
            <fret>3</fret>
          </technical>
        </notations>
      </note>
      <note>
        <pitch>
          <step>E</step>
          <octave>5</octave>
        </pitch>
        <duration>4</duration>
        <tie type="start"/>
        <voice>1</voice>
        <type>quarter</type>
        <notations>
          <tied type="start"/>
          <technical>
            <string>1</string>
            <fret>12</fret>
          </technical>
        </notations>
      </note>
    </measure>
    <measure number="15">
      <note>
        <pitch>
          <step>E</step>
          <octave>5</octave>
        </pitch>
        <duration>12</duration>
        <tie type="start"/>
        <tie type="stop"/>
        <voice>1</voice>
        <type>half</type>
        <dot/>
        <notations>
          <tied type="start"/>
          <tied type="stop"/>
          <technical>
            <string>1</string>
            <fret>12</fret>
          </technical>
        </notations>
      </note>
      <note>
        <pitch>
          <step>E</step>
          <octave>5</octave>
        </pitch>
        <duration>3</duration>
        <tie type="stop"/>
        <voice>1</voice>
        <type>eighth</type>
        <dot/>
        <notations>
          <tied type="stop"/>
          <technical>
            <string>1</string>
            <fret>12</fret>
          </technical>
        </notations>
      </note>
      <note>
        <pitch>
          <step>D</step>
          <octave>5</octave>
        </pitch>
        <duration>1</duration>
        <tie type="start"/>
        <voice>1</voice>
        <type>16th</type>
        <notations>
          <tied type="start"/>
          <technical>
            <string>1</string>
            <fret>10</fret>
          </technical>
        </notations>
      </note>
    </measure>
    <measure number="16">
      <note>
        <pitch>
          <step>D</step>
          <octave>5</octave>
        </pitch>
        <duration>8</duration>
        <tie type="start"/>
        <tie type="stop"/>
        <voice>1</voice>
        <type>half</type>
        <notations>
          <tied type="start"/>
          <tied type="stop"/>
          <technical>
            <string>1</string>
            <fret>10</fret>
          </technical>
        </notations>
      </note>
      <note>
        <pitch>
          <step>D</step>
          <octave>5</octave>
        </pitch>
        <duration>3</duration>
        <tie type="stop"/>
        <voice>1</voice>
        <type>eighth</type>
        <dot/>
        <notations>
          <tied type="stop"/>
          <technical>
            <string>1</string>
            <fret>10</fret>
          </technical>
        </notations>
      </note>
      <note>
        <pitch>
          <step>B</step>
          <octave>4</octave>
        </pitch>
        <duration>4</duration>
        <tie type="start"/>
        <voice>1</voice>
        <type>quarter</type>
        <notations>
          <tied type="start"/>
          <technical>
            <string>1</string>
            <fret>7</fret>
          </technical>
        </notations>
      </note>
      <note>
        <pitch>
          <step>B</step>
          <octave>4</octave>
        </pitch>
        <duration>1</duration>
        <tie type="start"/>
        <tie type="stop"/>
        <voice>1</voice>
        <type>16th</type>
        <notations>
          <tied type="start"/>
          <tied type="stop"/>
          <technical>
            <string>1</string>
            <fret>7</fret>
          </technical>
        </notations>
      </note>
    </measure>
    <measure number="17">
      <note>
        <pitch>
          <step>B</step>
          <octave>4</octave>
        </pitch>
        <duration>16</duration>
        <tie type="stop"/>
        <voice>1</voice>
        <type>whole</type>
        <notations>
          <tied type="stop"/>
          <technical>
            <string>1</string>
            <fret>7</fret>
          </technical>
        </notations>
      </note>
    </measure>
    <measure number="18">
      <note>
        <pitch>
          <step>A</step>
          <octave>2</octave>
        </pitch>
        <duration>12</duration>
        <voice>1</voice>
        <type>half</type>
        <dot/>
        <notations>
          <technical>
            <string>5</string>
            <fret>0</fret>
          </technical>
        </notations>
      </note>
      <note>
        <chord/>
        <pitch>
          <step>E</step>
          <octave>3</octave>
        </pitch>
        <duration>12</duration>
        <voice>1</voice>
        <type>half</type>
        <dot/>
        <notations>
          <technical>
            <string>4</string>
            <fret>2</fret>
          </technical>
        </notations>
      </note>
      <note>
        <chord/>
        <pitch>
          <step>A</step>
          <octave>3</octave>
        </pitch>
        <duration>12</duration>
        <voice>1</voice>
        <type>half</type>
        <dot/>
        <notations>
          <technical>
            <string>3</string>
            <fret>2</fret>
          </technical>
        </notations>
      </note>
      <note>
        <chord/>
        <pitch>
          <step>C</step>
          <octave>4</octave>
        </pitch>
        <duration>12</duration>
        <voice>1</voice>
        <type>half</type>
        <dot/>
        <notations>
          <technical>
            <string>2</string>
            <fret>1</fret>
          </technical>
        </notations>
      </note>
      <note>
        <pitch>
          <step>E</step>
          <octave>4</octave>
        </pitch>
        <duration>4</duration>
        <tie type="start"/>
        <voice>1</voice>
        <type>quarter</type>
        <notations>
          <tied type="start"/>
          <technical>
            <string>1</string>
            <fret>0</fret>
          </technical>
        </notations>
      </note>
    </measure>
    <measure number="19">
      <note>
        <pitch>
          <step>E</step>
          <octave>4</octave>
        </pitch>
        <duration>16</duration>
        <tie type="start"/>
        <tie type="stop"/>
        <voice>1</voice>
        <type>whole</type>
        <notations>
          <tied type="start"/>
          <tied type="stop"/>
          <technical>
            <string>1</string>
            <fret>0</fret>
          </technical>
        </notations>
      </note>
    </measure>
    <measure number="20">
      <note>
        <pitch>
          <step>E</step>
          <octave>4</octave>
        </pitch>
        <duration>6</duration>
        <tie type="start"/>
        <tie type="stop"/>
        <voice>1</voice>
        <type>quarter</type>
        <dot/>
        <notations>
          <tied type="start"/>
          <tied type="stop"/>
          <technical>
            <string>1</string>
            <fret>0</fret>
          </technical>
        </notations>
      </note>
      <note>
        <pitch>
          <step>E</step>
          <octave>4</octave>
        </pitch>
        <duration>1</duration>
        <tie type="stop"/>
        <voice>1</voice>
        <type>16th</type>
        <notations>
          <tied type="stop"/>
          <technical>
            <string>1</string>
            <fret>0</fret>
          </technical>
        </notations>
      </note>
      <note>
        <rest/>
        <duration>8</duration>
        <voice>1</voice>
        <type>half</type>
      </note>
      <note>
        <rest/>
        <duration>1</duration>
        <voice>1</voice>
        <type>16th</type>
      </note>
    </measure>
  </part>
</score-partwise>
